<svg xmlns="http://www.w3.org/2000/svg" xmlns:xlink="http://www.w3.org/1999/xlink" width="711" height="422" viewBox="0 0 711 422">
  <defs>
    <clipPath id="clip-path">
      <rect id="Rectangle_16" data-name="Rectangle 16" width="202.931" height="214.17" fill="none"/>
    </clipPath>
    <linearGradient id="linear-gradient" x1="0.072" y1="0.5" x2="0.925" y2="0.5" gradientUnits="objectBoundingBox">
      <stop offset="0" stop-color="#f8dea2"/>
      <stop offset="1" stop-color="#ff8754" stop-opacity="0.831"/>
    </linearGradient>
    <clipPath id="clip-path-2">
      <rect id="Rectangle_17" data-name="Rectangle 17" width="77.834" height="129.487" fill="none"/>
    </clipPath>
    <clipPath id="clip-logo_final_1">
      <rect width="711" height="422"/>
    </clipPath>
  </defs>
  <g id="logo_final_1" data-name="logo_final – 1" clip-path="url(#clip-logo_final_1)">
    <rect width="711" height="422" fill="#fff"/>
    <g id="Groupe_14" data-name="Groupe 14" transform="translate(-204.086 -1452.378)">
      <g id="E_logo" data-name="E logo" transform="translate(0 1438)">
        <g id="Grille_de_répétition_2" data-name="Grille de répétition 2" transform="translate(263.086 109.378)" clip-path="url(#clip-path)">
          <g id="Groupe_10" data-name="Groupe 10" transform="translate(-263.086 -109.378)">
            <path id="Tracé_11" data-name="Tracé 11" d="M-1232.26,1802.38l-25.654,48.17,163.448-.016,27.482-47.5Z" transform="translate(1521 -1693)" fill="url(#linear-gradient)"/>
          </g>
          <g id="Groupe_10-2" data-name="Groupe 10" transform="translate(-263.086 -32.378)">
            <path id="Tracé_11-2" data-name="Tracé 11" d="M-1232.26,1802.38l-25.654,48.17,163.448-.016,27.482-47.5Z" transform="translate(1521 -1693)" fill="url(#linear-gradient)"/>
          </g>
          <g id="Groupe_10-3" data-name="Groupe 10" transform="translate(-263.086 44.622)">
            <path id="Tracé_11-3" data-name="Tracé 11" d="M-1232.26,1802.38l-25.654,48.17,163.448-.016,27.482-47.5Z" transform="translate(1521 -1693)" fill="url(#linear-gradient)"/>
          </g>
        </g>
        <g id="Grille_de_répétition_3" data-name="Grille de répétition 3" transform="translate(263.086 157.548)" clip-path="url(#clip-path-2)">
          <g id="Groupe_15" data-name="Groupe 15" transform="translate(-263.086 -157.548)">
            <path id="Tracé_7" data-name="Tracé 7" d="M-1257.91,1850.55l22.4,23.487h55.44l-23.76-23.487Z" transform="translate(1521 -1693)" fill="#ff9b71"/>
          </g>
          <g id="Groupe_16" data-name="Groupe 16" transform="translate(-263.086 -80.548)">
            <path id="Tracé_7-2" data-name="Tracé 7" d="M-1257.91,1850.55l22.4,23.487h55.44l-23.76-23.487Z" transform="translate(1521 -1693)" fill="#ff9b71"/>
          </g>
        </g>
        <path id="Tracé_8" data-name="Tracé 8" d="M-1257.91,1850.55l22.4,23.487h55.44l-23.76-23.487Z" transform="translate(1521 -1616)" fill="#ff9b71"/>
      </g>
      <path id="Tracé_17" data-name="Tracé 17" d="M14.784,60.016a8.791,8.791,0,1,0,0-12.432A8.926,8.926,0,0,0,14.784,60.016Zm-1.344,96.6c-.672,9.744,15.792,9.744,15.12,0V85.384c.672-9.744-15.792-9.744-15.12,0ZM79.8,77.824c-9.576,0-17.136,2.352-22.512,7.224s-8.064,10.416-8.064,16.632c-.168,18.144,16.968,23.016,29.9,26.208,9.24,2.184,16.464,5.88,16.464,11.928,0,6.72-6.384,11.088-15.792,11.088-12.6,0-18.144-6.72-19.992-9.072l-.336-.5a6.555,6.555,0,0,0-5.544-2.856c-4.2,0-7.056,2.688-7.056,6.72a8.533,8.533,0,0,0,2.184,5.208l1.344,1.344c3.192,3.7,11.592,12.432,29.4,12.432,9.744,0,17.472-2.52,23.016-7.392s8.4-10.584,8.4-16.968c0-18.816-16.8-23.52-30.072-26.376-8.9-2.184-16.3-5.544-16.3-11.76C64.848,96.3,69.216,91.1,79.8,91.1a18.846,18.846,0,0,1,15.12,6.72c2.352,1.848,4.368,2.856,6.048,2.856a6.36,6.36,0,0,0,6.72-6.384,9.31,9.31,0,0,0-2.52-6.384C99.456,81.184,91.056,77.824,79.8,77.824ZM122.528,79c-8.4-.336-8.4,13.44,0,13.1h5.04v39.984a30.465,30.465,0,0,0,9.576,22.68,32.089,32.089,0,0,0,23.184,9.408,6.534,6.534,0,0,0,6.72-6.72,6.738,6.738,0,0,0-6.72-6.72c-9.576,0-17.64-8.4-17.64-18.648V92.1h17.64c8.4.336,8.4-13.44,0-13.1h-17.64V60.184c.672-9.744-15.792-9.744-15.12,0V79Zm62.2,72.744c8.568,8.232,18.984,12.264,31.248,12.264s22.68-4.032,31.08-12.264c8.568-8.232,12.768-18.48,12.768-30.744s-4.2-22.512-12.768-30.744c-8.4-8.232-18.816-12.432-31.08-12.432a43.5,43.5,0,0,0-31.248,12.432q-12.6,12.348-12.6,30.744T184.728,151.744Zm11.592-51.576a27.2,27.2,0,0,1,39.312,0c5.208,5.544,7.9,12.432,7.9,20.832s-2.688,15.288-7.9,20.832-11.76,8.232-19.656,8.232-14.448-2.688-19.656-8.232-7.9-12.432-7.9-20.832,2.692-15.288,7.9-20.832Zm75.3,44.52c0,11.424,7.56,19.488,20.16,19.488a6.888,6.888,0,0,0,0-13.776c-2.688,0-5.04-2.52-5.04-5.712V43.384c.672-9.744-15.792-9.744-15.12,0Z" transform="translate(559 1574)" fill="#ff9b71"/>
      <g id="P" transform="translate(0 1438)">
        <g id="Tracé_10" data-name="Tracé 10" transform="translate(492.156 230.432)">
          <path id="Tracé_18" data-name="Tracé 18" d="M24.481,0C38,0,48.961,11.919,48.961,26.623S38,53.245,24.481,53.245,0,41.326,0,26.623A27.794,27.794,0,0,1,7.665,7.274,23.3,23.3,0,0,1,24.481,0Z" fill="none"/>
          <path id="Tracé_19" data-name="Tracé 19" d="M24.481,0A23.3,23.3,0,0,0,7.665,7.274,27.794,27.794,0,0,0,0,26.623c0,14.7,10.96,26.623,24.481,26.623S48.961,41.326,48.961,26.623,38,0,24.481,0m0-16C46.8-16,64.961,3.12,64.961,26.623S46.8,69.245,24.481,69.245-16,50.125-16,26.623A43.684,43.684,0,0,1-3.878-3.805,39.546,39.546,0,0,1,24.481-16Z" fill="#ff9b71"/>
        </g>
        <rect id="Rectangle_14" data-name="Rectangle 14" width="16" height="96" rx="8" transform="translate(476 246)" fill="#ff9a71"/>
      </g>
    </g>
  </g>
</svg>
